<?xml version="1.0" encoding="UTF-8" standalone="no"?>
<!-- Created with Inkscape (http://www.inkscape.org/) -->

<svg
   xmlns:dc="http://purl.org/dc/elements/1.1/"
   xmlns:cc="http://creativecommons.org/ns#"
   xmlns:rdf="http://www.w3.org/1999/02/22-rdf-syntax-ns#"
   xmlns:svg="http://www.w3.org/2000/svg"
   xmlns="http://www.w3.org/2000/svg"
   xmlns:sodipodi="http://sodipodi.sourceforge.net/DTD/sodipodi-0.dtd"
   xmlns:inkscape="http://www.inkscape.org/namespaces/inkscape"
   width="210mm"
   height="297mm"
   viewBox="0 0 744.09448819 1052.3622047"
   id="svg2"
   version="1.1"
   inkscape:version="0.91 r13725"
   sodipodi:docname="fubar-app-icons.svg">
  <defs
     id="defs4" />
  <sodipodi:namedview
     id="base"
     pagecolor="#ffffff"
     bordercolor="#666666"
     borderopacity="1.0"
     inkscape:pageopacity="0.0"
     inkscape:pageshadow="2"
     inkscape:zoom="2.187036"
     inkscape:cx="1615.5249"
     inkscape:cy="157.50876"
     inkscape:document-units="px"
     inkscape:current-layer="layer1"
     showgrid="true"
     inkscape:window-width="1526"
     inkscape:window-height="852"
     inkscape:window-x="1875"
     inkscape:window-y="98"
     inkscape:window-maximized="0"
     showguides="true"
     inkscape:guide-bbox="true"
     inkscape:snap-bbox="true"
     inkscape:bbox-nodes="true"
     inkscape:snap-bbox-edge-midpoints="true"
     inkscape:snap-bbox-midpoints="true">
    <inkscape:grid
       type="xygrid"
       id="grid5284" />
    <sodipodi:guide
       position="1490,240.00001"
       orientation="0,1"
       id="guide5286" />
  </sodipodi:namedview>
  <metadata
     id="metadata7">
    <rdf:RDF>
      <cc:Work
         rdf:about="">
        <dc:format>image/svg+xml</dc:format>
        <dc:type
           rdf:resource="http://purl.org/dc/dcmitype/StillImage" />
        <dc:title />
      </cc:Work>
    </rdf:RDF>
  </metadata>
  <g
     inkscape:label="Layer 1"
     inkscape:groupmode="layer"
     id="layer1">
    <rect
       style="color:#000000;clip-rule:nonzero;display:inline;overflow:visible;visibility:visible;opacity:1;isolation:auto;mix-blend-mode:normal;color-interpolation:sRGB;color-interpolation-filters:linearRGB;solid-color:#000000;solid-opacity:1;fill:#000000;fill-opacity:1;fill-rule:nonzero;stroke:none;stroke-width:1.8657881;stroke-linecap:butt;stroke-linejoin:miter;stroke-miterlimit:4;stroke-dasharray:none;stroke-dashoffset:0;stroke-opacity:1;color-rendering:auto;image-rendering:auto;shape-rendering:auto;text-rendering:auto;enable-background:accumulate"
       id="rect5417-5-0-7-7-8-3-0-3-5"
       width="100"
       height="100"
       x="1010"
       y="812.36218"
       inkscape:export-filename="/home/tong/dev/project/fubar/res/image/tumblr.png"
       inkscape:export-xdpi="90"
       inkscape:export-ydpi="90" />
    <rect
       style="color:#000000;clip-rule:nonzero;display:inline;overflow:visible;visibility:visible;opacity:1;isolation:auto;mix-blend-mode:normal;color-interpolation:sRGB;color-interpolation-filters:linearRGB;solid-color:#000000;solid-opacity:1;fill:#000000;fill-opacity:1;fill-rule:nonzero;stroke:none;stroke-width:1.8657881;stroke-linecap:butt;stroke-linejoin:miter;stroke-miterlimit:4;stroke-dasharray:none;stroke-dashoffset:0;stroke-opacity:1;color-rendering:auto;image-rendering:auto;shape-rendering:auto;text-rendering:auto;enable-background:accumulate"
       id="rect5417-5-0-7-7-8-3-0"
       width="100"
       height="100"
       x="790"
       y="812.36218"
       inkscape:export-filename="/home/tong/dev/project/giphy-tv/res/image/settings.png"
       inkscape:export-xdpi="90"
       inkscape:export-ydpi="90" />
    <rect
       style="color:#000000;clip-rule:nonzero;display:inline;overflow:visible;visibility:visible;opacity:1;isolation:auto;mix-blend-mode:normal;color-interpolation:sRGB;color-interpolation-filters:linearRGB;solid-color:#000000;solid-opacity:1;fill:#000000;fill-opacity:1;fill-rule:nonzero;stroke:none;stroke-width:1.8657881;stroke-linecap:butt;stroke-linejoin:miter;stroke-miterlimit:4;stroke-dasharray:none;stroke-dashoffset:0;stroke-opacity:1;color-rendering:auto;image-rendering:auto;shape-rendering:auto;text-rendering:auto;enable-background:accumulate"
       id="rect5417-5-0-7-7-8"
       width="100"
       height="100"
       x="570"
       y="812.36218"
       inkscape:export-filename="/home/tong/dev/project/giphy-tv/res/image/play.png"
       inkscape:export-xdpi="90"
       inkscape:export-ydpi="90" />
    <rect
       style="color:#000000;clip-rule:nonzero;display:inline;overflow:visible;visibility:visible;opacity:1;isolation:auto;mix-blend-mode:normal;color-interpolation:sRGB;color-interpolation-filters:linearRGB;solid-color:#000000;solid-opacity:1;fill:#000000;fill-opacity:1;fill-rule:nonzero;stroke:none;stroke-width:1.8657881;stroke-linecap:butt;stroke-linejoin:miter;stroke-miterlimit:4;stroke-dasharray:none;stroke-dashoffset:0;stroke-opacity:1;color-rendering:auto;image-rendering:auto;shape-rendering:auto;text-rendering:auto;enable-background:accumulate"
       id="rect5417-5-0-7-7-5"
       width="100"
       height="100"
       x="680"
       y="812.36218"
       inkscape:export-filename="/home/tong/dev/project/giphy-tv/res/image/settings.png"
       inkscape:export-xdpi="90"
       inkscape:export-ydpi="90" />
    <rect
       style="color:#000000;clip-rule:nonzero;display:inline;overflow:visible;visibility:visible;opacity:1;isolation:auto;mix-blend-mode:normal;color-interpolation:sRGB;color-interpolation-filters:linearRGB;solid-color:#000000;solid-opacity:1;fill:#000000;fill-opacity:1;fill-rule:nonzero;stroke:none;stroke-width:1.8657881;stroke-linecap:butt;stroke-linejoin:miter;stroke-miterlimit:4;stroke-dasharray:none;stroke-dashoffset:0;stroke-opacity:1;color-rendering:auto;image-rendering:auto;shape-rendering:auto;text-rendering:auto;enable-background:accumulate"
       id="rect5417"
       width="100"
       height="100"
       x="20"
       y="812.36218"
       inkscape:export-filename="/home/tong/dev/project/giphy-tv/res/image/search.png"
       inkscape:export-xdpi="90"
       inkscape:export-ydpi="90" />
    <rect
       style="color:#000000;clip-rule:nonzero;display:inline;overflow:visible;visibility:visible;opacity:1;isolation:auto;mix-blend-mode:normal;color-interpolation:sRGB;color-interpolation-filters:linearRGB;solid-color:#000000;solid-opacity:1;fill:#000000;fill-opacity:1;fill-rule:nonzero;stroke:none;stroke-width:1.8657881;stroke-linecap:butt;stroke-linejoin:miter;stroke-miterlimit:4;stroke-dasharray:none;stroke-dashoffset:0;stroke-opacity:1;color-rendering:auto;image-rendering:auto;shape-rendering:auto;text-rendering:auto;enable-background:accumulate"
       id="rect5417-5"
       width="100"
       height="100"
       x="130"
       y="812.36218"
       inkscape:export-filename="/home/tong/dev/project/giphy-tv/res/image/clear.png"
       inkscape:export-xdpi="90"
       inkscape:export-ydpi="90" />
    <rect
       style="color:#000000;clip-rule:nonzero;display:inline;overflow:visible;visibility:visible;opacity:1;isolation:auto;mix-blend-mode:normal;color-interpolation:sRGB;color-interpolation-filters:linearRGB;solid-color:#000000;solid-opacity:1;fill:#000000;fill-opacity:1;fill-rule:nonzero;stroke:none;stroke-width:1.8657881;stroke-linecap:butt;stroke-linejoin:miter;stroke-miterlimit:4;stroke-dasharray:none;stroke-dashoffset:0;stroke-opacity:1;color-rendering:auto;image-rendering:auto;shape-rendering:auto;text-rendering:auto;enable-background:accumulate"
       id="rect5417-5-0"
       width="100"
       height="100"
       x="240"
       y="812.36218"
       inkscape:export-filename="/home/tong/dev/project/giphy-tv/res/image/trending.png"
       inkscape:export-xdpi="90"
       inkscape:export-ydpi="90" />
    <rect
       style="color:#000000;clip-rule:nonzero;display:inline;overflow:visible;visibility:visible;opacity:1;isolation:auto;mix-blend-mode:normal;color-interpolation:sRGB;color-interpolation-filters:linearRGB;solid-color:#000000;solid-opacity:1;fill:#000000;fill-opacity:1;fill-rule:nonzero;stroke:none;stroke-width:1.8657881;stroke-linecap:butt;stroke-linejoin:miter;stroke-miterlimit:4;stroke-dasharray:none;stroke-dashoffset:0;stroke-opacity:1;color-rendering:auto;image-rendering:auto;shape-rendering:auto;text-rendering:auto;enable-background:accumulate"
       id="rect5417-5-0-7"
       width="100"
       height="100"
       x="350"
       y="812.36218"
       inkscape:export-filename="/home/tong/dev/project/giphy-tv/res/image/share.png"
       inkscape:export-xdpi="90"
       inkscape:export-ydpi="90" />
    <g
       style="fill:#ffffff"
       id="g5634"
       transform="matrix(3.3333335,0,0,3.3333335,360,822.36222)"
       inkscape:export-filename="/home/tong/dev/project/giphy-tv/res/image/share.png"
       inkscape:export-xdpi="90"
       inkscape:export-ydpi="90">
      <path
         id="path5624"
         d="M 0,0 24,0 24,24 0,24 Z"
         inkscape:connector-curvature="0"
         style="fill:none" />
      <path
         id="path5626"
         d="m 18,16.08 c -0.76,0 -1.44,0.3 -1.96,0.77 L 8.91,12.7 C 8.96,12.47 9,12.24 9,12 9,11.76 8.96,11.53 8.91,11.3 L 15.96,7.19 C 16.5,7.69 17.21,8 18,8 19.66,8 21,6.66 21,5 21,3.34 19.66,2 18,2 c -1.66,0 -3,1.34 -3,3 0,0.24 0.04,0.47 0.09,0.7 L 8.04,9.81 C 7.5,9.31 6.79,9 6,9 4.34,9 3,10.34 3,12 c 0,1.66 1.34,3 3,3 0.79,0 1.5,-0.31 2.04,-0.81 l 7.12,4.16 c -0.05,0.21 -0.08,0.43 -0.08,0.65 0,1.61 1.31,2.92 2.92,2.92 1.61,0 2.92,-1.31 2.92,-2.92 0,-1.61 -1.31,-2.92 -2.92,-2.92 z"
         inkscape:connector-curvature="0" />
    </g>
    <g
       style="fill:#ffffff"
       id="g5724"
       transform="matrix(3.3333335,0,0,3.3333335,140,822.36222)"
       inkscape:export-filename="/home/tong/dev/project/giphy-tv/res/image/clear.png"
       inkscape:export-xdpi="90"
       inkscape:export-ydpi="90">
      <path
         id="path5714"
         d="M 19,6.41 17.59,5 12,10.59 6.41,5 5,6.41 10.59,12 5,17.59 6.41,19 12,13.41 17.59,19 19,17.59 13.41,12 Z"
         inkscape:connector-curvature="0" />
      <path
         id="path5716"
         d="M 0,0 24,0 24,24 0,24 Z"
         inkscape:connector-curvature="0"
         style="fill:none" />
    </g>
    <g
       style="fill:#ffffff"
       id="g5740"
       transform="matrix(3.3333335,0,0,3.3333335,29.999998,822.36222)"
       inkscape:export-filename="/home/tong/dev/project/giphy-tv/res/image/search.png"
       inkscape:export-xdpi="90"
       inkscape:export-ydpi="90">
      <path
         id="path5730"
         d="m 15.5,14 -0.79,0 -0.28,-0.27 C 15.41,12.59 16,11.11 16,9.5 16,5.91 13.09,3 9.5,3 5.91,3 3,5.91 3,9.5 3,13.09 5.91,16 9.5,16 c 1.61,0 3.09,-0.59 4.23,-1.57 L 14,14.71 14,15.5 19,20.49 20.49,19 15.5,14 Z m -6,0 C 7.01,14 5,11.99 5,9.5 5,7.01 7.01,5 9.5,5 11.99,5 14,7.01 14,9.5 14,11.99 11.99,14 9.5,14 Z"
         inkscape:connector-curvature="0" />
      <path
         id="path5732"
         d="M 0,0 24,0 24,24 0,24 Z"
         inkscape:connector-curvature="0"
         style="fill:none" />
    </g>
    <g
       style="fill:#ffffff"
       id="g5756"
       transform="matrix(3.3333335,0,0,3.3333335,250,822.36222)"
       inkscape:export-filename="/home/tong/dev/project/giphy-tv/res/image/trending.png"
       inkscape:export-xdpi="90"
       inkscape:export-ydpi="90">
      <path
         id="path5746"
         d="m 16,6 2.29,2.29 -4.88,4.88 -4,-4 L 2,16.59 3.41,18 l 6,-6 4,4 6.3,-6.29 L 22,12 22,6 Z"
         inkscape:connector-curvature="0" />
      <path
         id="path5748"
         d="M 0,0 24,0 24,24 0,24 Z"
         inkscape:connector-curvature="0"
         style="fill:none" />
    </g>
    <rect
       style="color:#000000;clip-rule:nonzero;display:inline;overflow:visible;visibility:visible;opacity:1;isolation:auto;mix-blend-mode:normal;color-interpolation:sRGB;color-interpolation-filters:linearRGB;solid-color:#000000;solid-opacity:1;fill:#000000;fill-opacity:1;fill-rule:nonzero;stroke:none;stroke-width:1.8657881;stroke-linecap:butt;stroke-linejoin:miter;stroke-miterlimit:4;stroke-dasharray:none;stroke-dashoffset:0;stroke-opacity:1;color-rendering:auto;image-rendering:auto;shape-rendering:auto;text-rendering:auto;enable-background:accumulate"
       id="rect5417-5-0-7-7"
       width="100"
       height="100"
       x="460"
       y="812.36218"
       inkscape:export-filename="/home/tong/dev/project/giphy-tv/res/image/pause.png"
       inkscape:export-xdpi="90"
       inkscape:export-ydpi="90" />
    <g
       style="fill:#ffffff"
       id="g5885"
       transform="matrix(3.3333335,0,0,3.3333335,800,822.36222)"
       inkscape:export-filename="/home/tong/dev/project/giphy-tv/res/image/settings.png"
       inkscape:export-xdpi="90"
       inkscape:export-ydpi="90">
      <path
         id="path5875"
         d="m 19,9 -4,0 0,-6 -6,0 0,6 -4,0 7,7 7,-7 z m -14,9 0,2 14,0 0,-2 -14,0 z"
         inkscape:connector-curvature="0" />
      <path
         id="path5877"
         d="M 0,0 24,0 24,24 0,24 Z"
         inkscape:connector-curvature="0"
         style="fill:none" />
    </g>
    <g
       style="fill:#ffffff"
       id="g5901"
       transform="matrix(3.3333335,0,0,3.3333335,470,822.36222)"
       inkscape:export-filename="/home/tong/dev/project/giphy-tv/res/image/pause.png"
       inkscape:export-xdpi="90"
       inkscape:export-ydpi="90">
      <path
         id="path5891"
         d="m 6,19 4,0 0,-14 -4,0 0,14 z m 8,-14 0,14 4,0 0,-14 -4,0 z"
         inkscape:connector-curvature="0" />
      <path
         id="path5893"
         d="M 0,0 24,0 24,24 0,24 Z"
         inkscape:connector-curvature="0"
         style="fill:none" />
    </g>
    <g
       style="fill:#ffffff"
       id="g5917"
       transform="matrix(3.3333335,0,0,3.3333335,580,822.36222)"
       inkscape:export-filename="/home/tong/dev/project/giphy-tv/res/image/play.png"
       inkscape:export-xdpi="90"
       inkscape:export-ydpi="90">
      <path
         id="path5907"
         d="M 8,5 8,19 19,12 Z"
         inkscape:connector-curvature="0" />
      <path
         id="path5909"
         d="M 0,0 24,0 24,24 0,24 Z"
         inkscape:connector-curvature="0"
         style="fill:none" />
    </g>
    <g
       style="fill:#ffffff"
       id="g6038"
       transform="matrix(3.3333335,0,0,3.3333335,690,822.36222)"
       inkscape:export-filename="/home/tong/dev/project/giphy-tv/res/image/settings.png"
       inkscape:export-xdpi="90"
       inkscape:export-ydpi="90">
      <path
         id="path6028"
         d="M 0,0 24,0 24,24 0,24 Z"
         inkscape:connector-curvature="0"
         style="fill:none" />
      <path
         id="path6030"
         d="m 19.43,12.98 c 0.04,-0.32 0.07,-0.64 0.07,-0.98 0,-0.34 -0.03,-0.66 -0.07,-0.98 l 2.11,-1.65 c 0.19,-0.15 0.24,-0.42 0.12,-0.64 l -2,-3.46 C 19.54,5.05 19.27,4.97 19.05,5.05 l -2.49,1 C 16.04,5.65 15.48,5.32 14.87,5.07 L 14.49,2.42 C 14.46,2.18 14.25,2 14,2 L 10,2 C 9.75,2 9.54,2.18 9.51,2.42 L 9.13,5.07 C 8.52,5.32 7.96,5.66 7.44,6.05 l -2.49,-1 C 4.72,4.96 4.46,5.05 4.34,5.27 l -2,3.46 C 2.21,8.95 2.27,9.22 2.46,9.37 l 2.11,1.65 C 4.53,11.34 4.5,11.67 4.5,12 c 0,0.33 0.03,0.66 0.07,0.98 l -2.11,1.65 c -0.19,0.15 -0.24,0.42 -0.12,0.64 l 2,3.46 c 0.12,0.22 0.39,0.3 0.61,0.22 l 2.49,-1 c 0.52,0.4 1.08,0.73 1.69,0.98 l 0.38,2.65 C 9.54,21.82 9.75,22 10,22 l 4,0 c 0.25,0 0.46,-0.18 0.49,-0.42 l 0.38,-2.65 c 0.61,-0.25 1.17,-0.59 1.69,-0.98 l 2.49,1 c 0.23,0.09 0.49,0 0.61,-0.22 l 2,-3.46 c 0.12,-0.22 0.07,-0.49 -0.12,-0.64 L 19.43,12.98 Z M 12,15.5 c -1.93,0 -3.5,-1.57 -3.5,-3.5 0,-1.93 1.57,-3.5 3.5,-3.5 1.93,0 3.5,1.57 3.5,3.5 0,1.93 -1.57,3.5 -3.5,3.5 z"
         inkscape:connector-curvature="0" />
    </g>
    <rect
       style="color:#000000;clip-rule:nonzero;display:inline;overflow:visible;visibility:visible;opacity:1;isolation:auto;mix-blend-mode:normal;color-interpolation:sRGB;color-interpolation-filters:linearRGB;solid-color:#000000;solid-opacity:1;fill:#000000;fill-opacity:1;fill-rule:nonzero;stroke:none;stroke-width:1.8657881;stroke-linecap:butt;stroke-linejoin:miter;stroke-miterlimit:4;stroke-dasharray:none;stroke-dashoffset:0;stroke-opacity:1;color-rendering:auto;image-rendering:auto;shape-rendering:auto;text-rendering:auto;enable-background:accumulate"
       id="rect5417-5-0-7-7-8-3-0-3"
       width="100"
       height="100"
       x="900"
       y="812.36218"
       inkscape:export-filename="/home/tong/dev/project/fubar/res/image/link.png"
       inkscape:export-xdpi="90"
       inkscape:export-ydpi="90" />
    <g
       style="fill:#ffffff"
       id="g4457"
       transform="matrix(3.3333335,0,0,3.3333335,910,822.36222)"
       inkscape:export-filename="/home/tong/dev/project/fubar/res/image/link.png"
       inkscape:export-xdpi="90"
       inkscape:export-ydpi="90">
      <path
         id="path4447"
         d="M 0,0 24,0 24,24 0,24 Z"
         inkscape:connector-curvature="0"
         style="fill:none" />
      <path
         id="path4449"
         d="M 3.9,12 C 3.9,10.29 5.29,8.9 7,8.9 l 4,0 L 11,7 7,7 c -2.76,0 -5,2.24 -5,5 0,2.76 2.24,5 5,5 l 4,0 0,-1.9 -4,0 C 5.29,15.1 3.9,13.71 3.9,12 Z m 4.1,1 8,0 0,-2 -8,0 0,2 z m 9,-6 -4,0 0,1.9 4,0 c 1.71,0 3.1,1.39 3.1,3.1 0,1.71 -1.39,3.1 -3.1,3.1 l -4,0 0,1.9 4,0 c 2.76,0 5,-2.24 5,-5 0,-2.76 -2.24,-5 -5,-5 z"
         inkscape:connector-curvature="0" />
    </g>
    <path
       id="path4605"
       d="m 1074.3527,880.27322 2.8847,8.5483 q -0.8309,1.2602 -4.0016,2.3818 -3.1713,1.1216 -6.3837,1.1538 -3.7527,0.075 -6.8684,-0.9368 -3.1154,-1.0109 -5.1373,-2.668 -2.0217,-1.657 -3.4248,-3.8218 -1.4032,-2.1648 -2.0032,-4.325 -0.6,-2.16 -0.5954,-4.2556 l 0,-19.6168 -6.0603,0 0,-7.75436 q 2.5986,-0.93698 4.6526,-2.50633 2.0538,-1.56933 3.2817,-3.24483 1.2279,-1.67551 2.091,-3.67872 0.8631,-2.00322 1.2276,-3.56795 0.3649,-1.56472 0.5403,-3.18946 0.046,-0.18001 0.1609,-0.30464 0.125,-0.12461 0.2725,-0.12461 l 8.7975,0 0,15.29186 12.01,0 0,9.08825 -12.0423,0 0,18.67979 q 0,1.0801 0.2353,2.0218 0.2353,0.9416 0.8124,1.8924 0.5772,0.9508 1.7864,1.4954 1.2092,0.5448 2.9402,0.5032 2.811,-0.075 4.8327,-1.0478 z"
       inkscape:connector-curvature="0"
       style="fill:#ffffff"
       inkscape:export-filename="/home/tong/dev/project/fubar/res/image/tumblr.png"
       inkscape:export-xdpi="90"
       inkscape:export-ydpi="90" />
    <rect
       style="color:#000000;clip-rule:nonzero;display:inline;overflow:visible;visibility:visible;opacity:1;isolation:auto;mix-blend-mode:normal;color-interpolation:sRGB;color-interpolation-filters:linearRGB;solid-color:#000000;solid-opacity:1;fill:#000000;fill-opacity:1;fill-rule:nonzero;stroke:none;stroke-width:1.8657881;stroke-linecap:butt;stroke-linejoin:miter;stroke-miterlimit:4;stroke-dasharray:none;stroke-dashoffset:0;stroke-opacity:1;color-rendering:auto;image-rendering:auto;shape-rendering:auto;text-rendering:auto;enable-background:accumulate"
       id="rect5417-5-0-7-7-8-3-0-3-5-7"
       width="100"
       height="100"
       x="1230"
       y="812.36218"
       inkscape:export-filename="/home/tong/dev/project/fubar/res/image/reddit.png"
       inkscape:export-xdpi="90"
       inkscape:export-ydpi="90" />
    <path
       style="fill:#ffffff"
       id="path4"
       d="m 1259.7144,866.93874 c 0,-2.7994 2.2718,-5.0715 5.0714,-5.0715 2.7994,0 5.0712,2.2721 5.0712,5.0715 0,2.7994 -2.2718,5.07158 -5.0712,5.07158 -2.7996,0 -5.0714,-2.27218 -5.0714,-5.07158 z m 30.4282,0 c 0,-2.7994 2.272,-5.0715 5.0715,-5.0715 2.7995,0 5.0714,2.2721 5.0714,5.0715 0,2.7994 -2.272,5.07158 -5.0714,5.07158 -2.7996,0 -5.0715,-2.27218 -5.0715,-5.07158 z m 0.2487,10.83768 c 1.3085,-1.0295 3.2001,-0.8064 4.2297,0.5019 1.0296,1.3086 0.8064,3.2002 -0.5021,4.2297 -3.6362,2.8654 -9.1794,4.7164 -14.1138,4.7164 -4.9345,0 -10.4774,-1.851 -14.119,-4.7164 -1.3084,-1.0295 -1.5314,-2.9211 -0.5019,-4.2297 1.0296,-1.3083 2.9211,-1.5314 4.2295,-0.5019 2.0946,1.6481 6.2378,3.423 10.3913,3.423 4.1535,0 8.297,-1.7749 10.3914,-3.423 z m 30.1802,-20.98038 c 0,-5.604 -4.5391,-10.143 -10.1429,-10.143 -3.8138,0 -7.1304,2.1047 -8.8649,5.2135 -5.2134,-2.8502 -11.563,-4.6962 -18.4854,-5.1223 l 6.0502,-13.5912 11.5832,3.342 c 1.0448,2.9565 3.8593,5.0815 7.176,5.0815 4.1994,0 7.6074,-3.408 7.6074,-7.607 0,-4.1992 -3.408,-7.6073 -7.6074,-7.6073 -2.8958,0 -5.4162,1.6178 -6.6993,4.0015 l -12.9067,-3.7277 c -1.4457,-0.4158 -2.9772,0.2942 -3.5857,1.6687 l -8.2206,18.465 c -6.745,0.4768 -12.9372,2.2973 -18.039,5.0918 -1.7346,-3.109 -5.0511,-5.2135 -8.8649,-5.2135 -5.6039,0 -10.143,4.5389 -10.143,10.1427 0,4.1435 2.4903,7.7088 6.0503,9.2808 -0.639,1.9017 -0.9787,3.8898 -0.9787,5.93368 0,14.002 15.8938,25.357 35.5,25.357 19.6061,0 35.4999,-11.355 35.4999,-25.357 0,-2.04388 -0.3398,-4.03198 -0.9787,-5.93368 3.5653,-1.572 6.0503,-5.1373 6.0503,-9.2808 z m -12.6788,-25.6717 c 1.5773,0 2.8554,1.278 2.8554,2.8552 0,1.5773 -1.2781,2.8553 -2.8554,2.8553 -1.5772,0 -2.855,-1.278 -2.855,-2.8553 0,-1.5772 1.2778,-2.8552 2.855,-2.8552 z m -63.393,25.6717 c 0,-2.7944 2.2771,-5.0716 5.0714,-5.0716 2.0239,0 3.7683,1.1868 4.5847,2.906 -2.6523,2.0084 -4.8485,4.3311 -6.4713,6.8718 -1.8662,-0.7505 -3.1848,-2.5763 -3.1848,-4.7062 z M 1280,891.34742 c -16.2794,0 -29.4801,-8.6567 -29.4801,-19.3371 0,-10.68048 13.1954,-19.33758 29.4801,-19.33758 16.2794,0 29.48,8.6571 29.48,19.33758 0,10.6804 -13.1958,19.3371 -29.48,19.3371 z m 32.3152,-29.84518 c -1.6229,-2.5459 -3.8189,-4.8634 -6.4712,-6.8718 0.8165,-1.7142 2.5611,-2.906 4.5844,-2.906 2.7943,0 5.0713,2.2772 5.0713,5.0716 0,2.1299 -1.3183,3.9557 -3.1845,4.7062 z"
       inkscape:connector-curvature="0" />
    <rect
       style="color:#000000;clip-rule:nonzero;display:inline;overflow:visible;visibility:visible;opacity:1;isolation:auto;mix-blend-mode:normal;color-interpolation:sRGB;color-interpolation-filters:linearRGB;solid-color:#000000;solid-opacity:1;fill:#000000;fill-opacity:1;fill-rule:nonzero;stroke:none;stroke-width:1.8657881;stroke-linecap:butt;stroke-linejoin:miter;stroke-miterlimit:4;stroke-dasharray:none;stroke-dashoffset:0;stroke-opacity:1;color-rendering:auto;image-rendering:auto;shape-rendering:auto;text-rendering:auto;enable-background:accumulate"
       id="rect5417-5-0-7-7-8-3-0-3-5-77"
       width="100"
       height="100"
       x="1120"
       y="812.36218"
       inkscape:export-filename="/home/tong/dev/project/fubar/res/image/tumblr.png"
       inkscape:export-xdpi="90"
       inkscape:export-ydpi="90" />
    <g
       style="fill:#ffffff"
       id="g4248"
       transform="matrix(3.3333335,0,0,3.3333335,1130,822.36222)">
      <path
         id="path4238"
         d="M 4,4 11,4 11,2 4,2 C 2.9,2 2,2.9 2,4 l 0,7 2,0 0,-7 z m 6,9 -4,5 12,0 -3,-4 -2.03,2.71 L 10,13 Z M 17,8.5 C 17,7.67 16.33,7 15.5,7 14.67,7 14,7.67 14,8.5 14,9.33 14.67,10 15.5,10 16.33,10 17,9.33 17,8.5 Z m 3,-6.5 -7,0 0,2 7,0 0,7 2,0 0,-7 C 22,2.9 21.1,2 20,2 Z m 0,18 -7,0 0,2 7,0 c 1.1,0 2,-0.9 2,-2 l 0,-7 -2,0 0,7 z M 4,13 2,13 2,20 c 0,1.1 0.9,2 2,2 l 7,0 0,-2 -7,0 0,-7 z"
         inkscape:connector-curvature="0" />
      <path
         id="path4240"
         d="M 0,0 24,0 24,24 0,24 Z"
         inkscape:connector-curvature="0"
         style="fill:none" />
    </g>
    <rect
       style="color:#000000;clip-rule:nonzero;display:inline;overflow:visible;visibility:visible;opacity:1;isolation:auto;mix-blend-mode:normal;color-interpolation:sRGB;color-interpolation-filters:linearRGB;solid-color:#000000;solid-opacity:1;fill:#000000;fill-opacity:1;fill-rule:nonzero;stroke:none;stroke-width:1.8657881;stroke-linecap:butt;stroke-linejoin:miter;stroke-miterlimit:4;stroke-dasharray:none;stroke-dashoffset:0;stroke-opacity:1;color-rendering:auto;image-rendering:auto;shape-rendering:auto;text-rendering:auto;enable-background:accumulate"
       id="rect5417-5-0-7-7-8-3-0-3-5-7-1"
       width="100"
       height="100"
       x="1340"
       y="812.36218"
       inkscape:export-filename="/home/tong/dev/project/fubar/res/image/ic_more_vert.png"
       inkscape:export-xdpi="90"
       inkscape:export-ydpi="90" />
    <g
       style="fill:#ffffff"
       id="g4271"
       transform="matrix(3.3333335,0,0,3.3333335,1350,822.3622)"
       inkscape:export-filename="/home/tong/dev/project/fubar/res/image/ic_more_vert.png"
       inkscape:export-xdpi="90"
       inkscape:export-ydpi="90">
      <path
         id="path4261"
         d="M 0,0 24,0 24,24 0,24 Z"
         inkscape:connector-curvature="0"
         style="fill:none" />
      <path
         id="path4263"
         d="m 12,8 c 1.1,0 2,-0.9 2,-2 0,-1.1 -0.9,-2 -2,-2 -1.1,0 -2,0.9 -2,2 0,1.1 0.9,2 2,2 z m 0,2 c -1.1,0 -2,0.9 -2,2 0,1.1 0.9,2 2,2 1.1,0 2,-0.9 2,-2 0,-1.1 -0.9,-2 -2,-2 z m 0,6 c -1.1,0 -2,0.9 -2,2 0,1.1 0.9,2 2,2 1.1,0 2,-0.9 2,-2 0,-1.1 -0.9,-2 -2,-2 z"
         inkscape:connector-curvature="0" />
    </g>
    <rect
       style="color:#000000;clip-rule:nonzero;display:inline;overflow:visible;visibility:visible;opacity:1;isolation:auto;mix-blend-mode:normal;color-interpolation:sRGB;color-interpolation-filters:linearRGB;solid-color:#000000;solid-opacity:1;fill:#000000;fill-opacity:1;fill-rule:nonzero;stroke:none;stroke-width:1.8657881;stroke-linecap:butt;stroke-linejoin:miter;stroke-miterlimit:4;stroke-dasharray:none;stroke-dashoffset:0;stroke-opacity:1;color-rendering:auto;image-rendering:auto;shape-rendering:auto;text-rendering:auto;enable-background:accumulate"
       id="rect5417-5-0-7-7-8-3-0-3-5-7-1-2"
       width="100"
       height="100"
       x="1450"
       y="812.36218"
       inkscape:export-filename="/home/tong/dev/project/fubar/res/image/ic_favourite.png"
       inkscape:export-xdpi="90"
       inkscape:export-ydpi="90" />
    <g
       style="fill:#ffffff"
       id="g4330"
       transform="matrix(3.3333335,0,0,3.3333335,1460,822.3622)"
       inkscape:export-filename="/home/tong/dev/project/fubar/res/image/ic_favourite.png"
       inkscape:export-xdpi="90"
       inkscape:export-ydpi="90">
      <path
         id="path4320"
         d="M 0,0 24,0 24,24 0,24 Z"
         inkscape:connector-curvature="0"
         style="fill:none" />
      <path
         id="path4322"
         d="M 12,21.35 10.55,20.03 C 5.4,15.36 2,12.28 2,8.5 2,5.42 4.42,3 7.5,3 9.24,3 10.91,3.81 12,5.09 13.09,3.81 14.76,3 16.5,3 19.58,3 22,5.42 22,8.5 c 0,3.78 -3.4,6.86 -8.55,11.54 L 12,21.35 Z"
         inkscape:connector-curvature="0" />
    </g>
    <rect
       style="color:#000000;clip-rule:nonzero;display:inline;overflow:visible;visibility:visible;opacity:1;isolation:auto;mix-blend-mode:normal;color-interpolation:sRGB;color-interpolation-filters:linearRGB;solid-color:#000000;solid-opacity:1;fill:#000000;fill-opacity:1;fill-rule:nonzero;stroke:none;stroke-width:1.8657881;stroke-linecap:butt;stroke-linejoin:miter;stroke-miterlimit:4;stroke-dasharray:none;stroke-dashoffset:0;stroke-opacity:1;color-rendering:auto;image-rendering:auto;shape-rendering:auto;text-rendering:auto;enable-background:accumulate"
       id="rect5417-5-0-7-7-8-3-0-3-5-7-1-2-5"
       width="100"
       height="100"
       x="1560"
       y="812.36218"
       inkscape:export-filename="/home/tong/dev/project/fubar/res/image/ic_favourite.png"
       inkscape:export-xdpi="90"
       inkscape:export-ydpi="90" />
    <path
       id="path4366"
       d="m 1619.0625,877.89798 0,9.41964 q 0,2.99107 -1.7411,2.99107 -1.0267,0 -2.0089,-0.98215 l 0,-13.43749 q 0.9822,-0.98214 2.0089,-0.98214 1.7411,0 1.7411,2.99107 z m 15.0893,0.0446 0,2.05358 -4.0178,0 0,-2.05358 q 0,-3.03571 2.0089,-3.03571 2.0089,0 2.0089,3.03571 z m -43.125,-9.73213 4.7768,0 0,-4.19644 -13.9286,0 0,4.19644 4.6876,0 0,25.40179 4.4642,0 0,-25.40179 z m 12.8572,25.40179 3.9732,0 0,-22.05358 -3.9732,0 0,16.875 q -1.3393,1.87501 -2.5447,1.87501 -0.8035,0 -0.9374,-0.93751 -0.045,-0.1339 -0.045,-1.5625 l 0,-16.25 -3.9733,0 0,17.45535 q 0,2.18751 0.3571,3.25894 0.5358,1.65178 2.5894,1.65178 2.1428,0 4.5536,-2.72321 l 0,2.41072 z m 19.1518,-6.60716 0,-8.79463 q 0,-3.25894 -0.4019,-4.41966 -0.7589,-2.49999 -3.1695,-2.49999 -2.2323,0 -4.1519,2.41071 l 0,-9.6875 -3.9732,0 0,29.59823 3.9732,0 0,-2.14287 q 2.0089,2.45536 4.1519,2.45536 2.4106,0 3.1695,-2.45536 0.4019,-1.20535 0.4019,-4.46429 z m 15.0892,-0.44642 0,-0.58035 -4.0625,0 q 0,2.27678 -0.089,2.7232 -0.3125,1.60716 -1.7859,1.60716 -2.0535,0 -2.0535,-3.08037 l 0,-3.88392 7.9911,0 0,-4.59822 q 0,-3.52679 -1.2054,-5.17858 -1.7411,-2.27678 -4.7322,-2.27678 -3.0356,0 -4.7767,2.27678 -1.25,1.65179 -1.25,5.17858 l 0,7.72321 q 0,3.52679 1.2947,5.17857 1.7411,2.27679 4.8214,2.27679 3.2142,0 4.8215,-2.36606 0.8035,-1.20538 0.9374,-2.41072 0.09,-0.40178 0.09,-2.58929 z m -27.1428,-40.75895 0,-9.37499 q 0,-3.08036 -1.9196,-3.08036 -1.9198,0 -1.9198,3.08036 l 0,9.37499 q 0,3.12502 1.9198,3.12502 1.9196,0 1.9196,-3.12502 z m 32.0982,33.5268 q 0,10.44643 -1.1608,15.62501 -0.6249,2.63394 -2.5892,4.41965 -1.9643,1.78571 -4.5536,2.05356 -8.2144,0.93749 -24.7768,0.93749 -16.5624,0 -24.7768,-0.93749 -2.5893,-0.26785 -4.5758,-2.05356 -1.9867,-1.78571 -2.567,-4.41965 -1.1608,-5.00001 -1.1608,-15.62501 0,-10.44643 1.1608,-15.62499 0.625,-2.63394 2.5892,-4.41965 1.9643,-1.78572 4.5983,-2.09822 8.1697,-0.89285 24.7321,-0.89285 16.5624,0 24.7768,0.89285 2.5893,0.3125 4.576,2.09822 1.9865,1.78571 2.5668,4.41965 1.1608,4.99999 1.1608,15.62499 z m -44.5537,-56.96429 4.5537,0 -5.4018,17.8125 0,12.09822 -4.4642,0 0,-12.09822 q -0.6251,-3.30356 -2.7233,-9.46428 -1.6518,-4.59821 -2.9018,-8.34822 l 4.7322,0 3.1696,11.74108 z m 16.518,14.86607 0,7.8125 q 0,3.61607 -1.2501,5.26787 -1.6518,2.27678 -4.732,2.27678 -2.9911,0 -4.6876,-2.27678 -1.25,-1.69644 -1.25,-5.26787 l 0,-7.8125 q 0,-3.57142 1.25,-5.22322 1.6965,-2.27678 4.6876,-2.27678 3.0802,0 4.732,2.27678 1.2501,1.6518 1.2501,5.22322 z m 14.9554,-7.23214 0,22.27679 -4.0626,0 0,-2.45536 q -2.366,2.76786 -4.5983,2.76786 -2.0535,0 -2.6338,-1.65179 -0.3572,-1.07143 -0.3572,-3.34821 l 0,-17.58929 4.0625,0 0,16.38393 q 0,1.47321 0.045,1.5625 0.1336,0.98215 0.9376,0.98215 1.2052,0 2.5447,-1.91964 l 0,-17.00894 4.0624,0 z"
       inkscape:connector-curvature="0"
       style="fill:#ffffff" />
  </g>
</svg>
